# xmcd
# 
# Track frame offsets:
#     150
#     17870
#     33170
#     70367
# 
# Disc length: 1296
# 
# Revision: 0
# Processed by: cddbd v1.5.2PL0 Copyright (c) Steve Scherf et al.
# Submitted via: BonkEnc v1.0.8
# 
DISCID=2d050e04
DTITLE=EM2 E-Motion - single
DYEAR=1996
DGENRE=Dance
TTITLE0=I Stand A Lone (E-Motion Radio Edit)
TTITLE1=I Stand A Lone (Nush Radio Edit)
TTITLE2=I Stand A Lone (Sharp Vocal)
TTITLE3=Daddy
EXTD=
EXTT0=
EXTT1=
EXTT2=
EXTT3=
PLAYORDER=
